<svg xmlns="http://www.w3.org/2000/svg" width="572" height="572" preserveAspectRatio="xMidYMid meet" version="1.0" viewBox="0 0 429 429"><metadata>Created by potrace 1.11, written by Peter Selinger 2001-2013</metadata><g fill="#000" stroke="none"><path d="M0 2145 l0 -2145 1643 0 c1746 0 1686 -1 1735 48 12 12 27 20 32 17 5 -3 11 4 15 15 3 11 12 20 18 20 7 0 20 7 30 15 18 13 18 15 -7 57 -31 53 -77 84 -136 93 -38 6 -54 16 -99 64 -68 71 -125 186 -127 256 -1 30 -12 74 -28 109 -43 96 -57 166 -46 222 11 57 45 144 78 195 12 20 22 43 22 51 0 21 94 169 129 202 18 18 39 54 51 92 18 53 29 68 63 91 30 21 46 42 62 81 13 32 33 61 49 71 15 10 37 34 48 52 11 19 39 57 63 84 23 28 47 65 53 84 7 19 25 55 41 80 16 25 37 65 46 89 12 29 23 42 36 42 11 0 23 10 29 24 7 20 18 26 57 31 26 3 57 8 69 10 28 6 84 45 102 72 13 21 12 23 -10 33 -13 6 -30 25 -37 41 -17 39 -40 48 -58 23 -12 -16 -15 -17 -23 -4 -6 10 -3 21 9 35 9 11 61 70 115 132 106 121 144 146 221 141 l40 -3 3 813 2 812 -2145 0 -2145 0 0 -2145z" transform="translate(0.000000,429.000000) scale(0.100000,-0.100000)"/><path d="M3812 2139 c-30 -12 -23 -33 12 -37 26 -3 66 21 66 40 0 11 -49 9 -78 -3z" transform="translate(0.000000,429.000000) scale(0.100000,-0.100000)"/></g></svg>